<svg xmlns="http://www.w3.org/2000/svg" viewBox="0 0 371.84 161.1"><defs><style>.cls-1{fill:#fff;}</style></defs><title>Asset 1</title><g id="Layer_2" data-name="Layer 2"><g id="Layer_1-2" data-name="Layer 1"><path class="cls-1" d="M1.85,152v-2.08l.56-5.36a33.69,33.69,0,0,1,.28-3.46,21.34,21.34,0,0,0,.09-4.33,21.2,21.2,0,0,1-.18-3.28,40.35,40.35,0,0,1,1.11-9.35l4.08-15.92q1.84-7.44,4.82-17.82Q18,69.79,22.06,49.73a185.41,185.41,0,0,1,6.12-23.54c.12-.34.68-2,1.67-4.84a2.5,2.5,0,0,1,2.41-1.73,3.53,3.53,0,0,1,1.3.17l.55.17a6,6,0,0,0,1.67.35L37.27,20a19.51,19.51,0,0,1,2.59-1.3l2-.77a2.78,2.78,0,0,1,3.15.69l3,3.11a11,11,0,0,0,6.67,3.64l4.45.52a34.68,34.68,0,0,1,12.24,3.63,9.25,9.25,0,0,1,5.38,5.19q3.33,5.88,4.82,8.83a25.9,25.9,0,0,1,2.78,11.42,24.87,24.87,0,0,1-.19,3.46,64.72,64.72,0,0,1-1.85,7.78A19.93,19.93,0,0,1,77.68,75L74.9,78.45A13.78,13.78,0,0,1,71,82.08a5.78,5.78,0,0,0-2.22,2.25,1.34,1.34,0,0,0-.19,1.56L70.27,88A67.72,67.72,0,0,1,76,95.06a20.12,20.12,0,0,1,3,9q.38,4.5.37,6.75a42.9,42.9,0,0,1-.92,9.51l-.56,2.6q-.75,2.43-4.45,7.79t-5.93,7.09c-3.46,2.89-5.5,4.67-6.12,5.37A48.18,48.18,0,0,1,46.17,153a71.91,71.91,0,0,0-11.68,6.4q-1.12.87-6.12,3.81a1.06,1.06,0,0,1-1.49-.18c-.25-.23-.25-.57,0-1a1.18,1.18,0,0,0-.55-1.73c-1-.47-1.18-1-.56-1.56L28.18,156a.76.76,0,0,0-.09-.78,1.53,1.53,0,0,0-.65-.6l-.93-.18q-3.15.53-4.08,2.6a23.47,23.47,0,0,1-3.7,4.67c-.62.58-1.06.87-1.3.87a1.11,1.11,0,0,1-.84,0,2.1,2.1,0,0,1-.64-.35,19.33,19.33,0,0,1-1.49-3.29,12.24,12.24,0,0,1-.28-1.3,12.46,12.46,0,0,0-.27-1.29,1.83,1.83,0,0,0-.75-1.21c-.24-.24-.55-.24-.92,0a1.63,1.63,0,0,0-.74,1l-1.67,2.77a2.29,2.29,0,0,1-1.49.35,1.56,1.56,0,0,1-.92-.52.67.67,0,0,1-.19-.52,3.71,3.71,0,0,0-3.34-3.46l-2-.17Zm26-16.44a1.52,1.52,0,0,0,.56,1.39,3.12,3.12,0,0,0,1.67-.18,7.06,7.06,0,0,0,1.85-1.21,123.69,123.69,0,0,0,15.94-12.63,38.91,38.91,0,0,0,3.9-4.24c1.23-1.56,2.5-3.34,3.8-5.36s2.19-3.38,2.69-4.07l.74-1.38a8.84,8.84,0,0,0,.37-1.91,6.06,6.06,0,0,0-1.48-3.63l-1.12-1a23.28,23.28,0,0,0-6.67-4A3.52,3.52,0,0,0,48.58,97l-1.3.18-10,3.11a2.89,2.89,0,0,0-2,2.42l-.56,4a50.08,50.08,0,0,1-.93,5.89c-.25,1-.83,3.66-1.76,7.87a96.8,96.8,0,0,1-3.24,11.51c-.37.81-.56,1.21-.56,1.21S28.06,133.94,27.81,135.55ZM40.05,73.09l-.56,4.49V78.8A1.62,1.62,0,0,0,40.05,80a2.1,2.1,0,0,0,1.48.52h.37a36.92,36.92,0,0,0,5-1.82A10.35,10.35,0,0,0,50.43,76q8.34-9.69,11.49-15.58L63,58a17.42,17.42,0,0,0,1.11-6.57,4.6,4.6,0,0,0-1.86-3.12,17.88,17.88,0,0,0-8.52-2.42,11.08,11.08,0,0,0-2.23.17l-2.69.43a3.9,3.9,0,0,0-2.22,1c-.44.46-1,1.84-1.58,4.15L43.38,58.2Z" transform="translate(-1.85 -17.66)"/><path class="cls-1" d="M88.61,163l-.36-1.18a18.67,18.67,0,0,1,.36-3,1.35,1.35,0,0,0-.36-.92,1.9,1.9,0,0,0-.9-.59,12,12,0,0,1-1.61-.17,12.15,12.15,0,0,1-1.61-.33,6.46,6.46,0,0,0-5.73,0h-.54a1.76,1.76,0,0,1-1.43-.67,8.23,8.23,0,0,1-1.8-1.84,3.12,3.12,0,0,1-.53-1.67,13.64,13.64,0,0,1,.53-2.68l2.51-8.19c.12-.44.33-1.11.63-2a15.42,15.42,0,0,1,1-2.34,22.45,22.45,0,0,0,2.33-7.86l.54-5a9.27,9.27,0,0,1,1.61-4.35,2.77,2.77,0,0,0,.54-2.84,5.44,5.44,0,0,1-.18-1.67,13.28,13.28,0,0,1,.9-4.35l3.22-9.19q2.15-7.69,2.51-9.87a20.36,20.36,0,0,1,2.33-6.18,9,9,0,0,0,1.07-4.52V80.7a11.31,11.31,0,0,1,.54-3.51,31.19,31.19,0,0,0,1.61-6.52A7.63,7.63,0,0,1,96,68.91a11.89,11.89,0,0,1,.36-1.25c.12-.56.45-1.62,1-3.18a10.45,10.45,0,0,0,.63-4.35A13.59,13.59,0,0,0,99,56.54c.23-1.39.41-2.48.53-3.26l3.59-14.88a8.39,8.39,0,0,0,.35-2,5.54,5.54,0,0,1,1.8-4.51c.23-.22.89-.81,2-1.75A12.7,12.7,0,0,1,110.55,28,8.56,8.56,0,0,1,114,27.2l5.38-.34Q123,26.53,132,25.53a91.6,91.6,0,0,1,9.49-.67l2.87.17c1.07.11,2.62.16,4.65.16q5,0,7.35.17a65.66,65.66,0,0,1,12.36,1.5,8,8,0,0,0,1.88.17,11.43,11.43,0,0,1,2.06.17,5.43,5.43,0,0,1,1.08.17,2.33,2.33,0,0,1,.89.33,5.53,5.53,0,0,0,3.22,1.67c1.32.23,2.21.39,2.69.5.24,0,.36.12.36.34s-.06.33-.18.33A6,6,0,0,0,178,32.88a2.14,2.14,0,0,1-2,.84l-4.83.33a10.67,10.67,0,0,0-3.23.51c-.71.33-1.07.66-1.07,1v.67c0,1-.78,2-2.33,3-.12,0-.18.28-.18.83l.36.34,2.15.16,3.94.17a.47.47,0,0,1,.36.25q.17.25,0,.42l-.36.17q-7.89,1-12.54,1.33l-25.44,2.35-5.37.33a3.7,3.7,0,0,0-1.79,1.17,3.91,3.91,0,0,0-.9,1.84q-2,6.69-3,11.37a68.49,68.49,0,0,0-1.26,7.52L119.24,75v1.51a1.54,1.54,0,0,0,.36.83,1.63,1.63,0,0,0,.89.67,21.31,21.31,0,0,0,5.38.51c1.91,0,4.65-.11,8.24-.34q5-.33,7.7-.33c1.07,0,2.69.11,4.84.33l.35.17a1.29,1.29,0,0,1-.17.83L145,81c-.24.12-.3.31-.18.59a1.06,1.06,0,0,0,.54.58,23.83,23.83,0,0,1,3.23.34.84.84,0,0,1,.89.5.77.77,0,0,1,.54.84.74.74,0,0,1-.18.41.61.61,0,0,1-.54.25c-1.07.12-2.68.37-4.83.76a33.3,33.3,0,0,1-5.92.58,25.84,25.84,0,0,0-6.8,1.17l-.36.34.54.5q7.15,0,15.76.83c.24,0,.48.23.72.67l-.72.67a2.74,2.74,0,0,0-1.07.34q-.36.16-.18.33l.53.5,3.77.34,3.22.16c.12,0,.24.12.36.34a1.31,1.31,0,0,0-.27.33,1.34,1.34,0,0,1-.27.34L140.2,94.07a6.08,6.08,0,0,0-4.12,1.84c-.48.67-1.44,1-2.87,1q-7.35,0-10.93.16a30.55,30.55,0,0,0-5.55.5,3.19,3.19,0,0,0-2.86,2.68c-.25.78-1,3.15-2.33,7.11A52.26,52.26,0,0,0,109,119a19.62,19.62,0,0,1-.54,3q-.36,1.35-.54,2.34a27.43,27.43,0,0,0-.89,3.52,49,49,0,0,0-1.08,5.51v.34a1.86,1.86,0,0,0,.63,1.42,3,3,0,0,0,1.52.75c.36,0,.84,0,1.44.08a3.73,3.73,0,0,0,1.43-.08q6.45-.33,9.67-.67c3.11-.22,5.43-.33,7-.33q2.86,0,8.24.33l5,.34.36.16-.54.84-3.22.33-8.6,1.17c-.12,0-.3.28-.53.84.11.22.23.33.35.33a10.31,10.31,0,0,0,3.59.42c1.31,0,2.26-.08,2.86-.08q2.69.16,8.24.17c.12,0,.3.28.54.83l-.54.17a.64.64,0,0,1-.45.17.6.6,0,0,0-.44.16l-4.3,2.18a7.27,7.27,0,0,1-2.06.5c-.9.11-1.65.22-2.24.33q-.54.51-.36.84c0,.11.18.33.54.67a5.08,5.08,0,0,0,2.15.5c1.07.11,2.41.22,4,.33s2.83.17,3.67.17l4.83.33.36.34q0,.16-.27.42a.77.77,0,0,1-.44.25h-7a53.06,53.06,0,0,0-9.31.5c-1.68.22-4.18.45-7.53.67l-2.68.67q-.36.17-.18.33a1.07,1.07,0,0,0,.36.84,14.8,14.8,0,0,0,3.85.58c1.49.06,2.71.14,3.67.25a10.18,10.18,0,0,1,2.15.34c.36.22.29.39-.18.5-.12,0-.18,0-.18.17s-.06.16-.18.16c-.84.11-2.63.34-5.37.67a62.94,62.94,0,0,1-7.71.5l-12,.67c-1.79.22-3,.84-3.58,1.84a1.89,1.89,0,0,1-.72.84,15.9,15.9,0,0,0-5.91,5,1.5,1.5,0,0,1-.89.51,11.62,11.62,0,0,1-3.41.5,16.79,16.79,0,0,1-2.51-.34Zm39.05-70.22c-.36-.23-.48-.17-.36.16,0,.12.12.17.36.17Z" transform="translate(-1.85 -17.66)"/><path class="cls-1" d="M228.16,164.81l.52-2.92,1.22-8.9c0-.22-.24-.43-.7-.65a.79.79,0,0,0-.52.16l-.69.81-.7.49a.74.74,0,0,0-.17-.41.77.77,0,0,1-.17-.4c.23-3,.34-5.4.34-7.12,0-.11-.28-.27-.86-.49l-.35.16a5.64,5.64,0,0,0-.87,1.3l-1,2.59a13.81,13.81,0,0,1-5,6c-.11.1-.35.1-.69,0a1.13,1.13,0,0,1-.7-.49,8.26,8.26,0,0,0-.34-1.94,3.46,3.46,0,0,0-1.22-2.59,3.17,3.17,0,0,1-1.21-2.27l.17-.64a25.07,25.07,0,0,0,.35-3.4q0-3.41-2.08-10.2L206.48,112q-2.78-9.39-7.11-22.66l-1-3.24c-.35-1.19-.81-1.89-1.39-2.11l-.35.17a1.92,1.92,0,0,0-1,1.21,6.66,6.66,0,0,0-.17.89l-4.16,15.54a37.85,37.85,0,0,1-1.22,3.89q-1.4,5.34-1.56,6.15a69.58,69.58,0,0,1-2.6,8.74q-1.05,3.89-3.82,11.66a41.16,41.16,0,0,1-1.73,4.69l-4.86,14.41a48.77,48.77,0,0,1-2.43,5c-.23.43-.58,1.11-1,2a16.64,16.64,0,0,0-1,2.51l-.69.81a1.59,1.59,0,0,1-1.39.81,1.52,1.52,0,0,1-1.21-.65,6.45,6.45,0,0,1-.87-1,3.17,3.17,0,0,0-1.22-1.05c-.58-.11-.86-.59-.86-1.46.46-2.05.75-3.45.86-4.21V151.7c0-.22-.23-.44-.69-.65-.46,0-.75.1-.87.32a24.85,24.85,0,0,1-4.85,5.18,5,5,0,0,0-1.39,2.11,35.2,35.2,0,0,0-2.26,4.85l-1,.81c-.11.11-.2.14-.26.08a.38.38,0,0,0-.26-.08c-.12,0-.23-.11-.35-.32l2.09-12.47q1.72-9.37,2.77-14.08l2.08-9.72,2.78-11.17,3-12q6.24-25.24,9-37.88,1.38-6.15,3.81-18.78L181,37.72l1.56-6q.35-1,.87-2.1c.81-1.08,1.5-1.62,2.08-1.62h.18c.69.11,1.27.7,1.73,1.78l.52,1.29.69.49a1.87,1.87,0,0,1,1.39-.32,5.25,5.25,0,0,1,1.39.81,1.15,1.15,0,0,0,1.13.32,1.53,1.53,0,0,0,.95-.81c.11-.32.87-2.21,2.26-5.67l1.38-2.75a1.9,1.9,0,0,1,1.56-.65,1.83,1.83,0,0,1,1.74,1,4.25,4.25,0,0,1,.87,2.26,5.2,5.2,0,0,1,.08,1.62,4.92,4.92,0,0,0,.09,1.62,2,2,0,0,0,.69,1.78,6.82,6.82,0,0,1,2.69,2.67q.78,1.55,2,4.62c.34,1.08.72,2.43,1.13,4s.72,2.86.95,3.73a14.9,14.9,0,0,0,1.21,3.56l1.22,4.37,4,13.92q.34,1.45,2.08,7.77,1.72,6.65,5.9,19.27c.11.54.23,1.32.34,2.35a5.38,5.38,0,0,0,.87,2.51c.23.21.4.32.52.32a1.46,1.46,0,0,0,.87-.16,3.24,3.24,0,0,0,.87-1.14,20,20,0,0,1,.69-1.94A9.23,9.23,0,0,0,228,95q1-4,3.47-12.14,5.55-19.43,7.63-29.3,1.74-7.61,4.16-15.71l2.08-7.28a22.42,22.42,0,0,1,1-3.16c.46-1.13.8-2,1-2.67a1.78,1.78,0,0,1,1.73-1.29,1.76,1.76,0,0,1,1.22.48l.86.65a2.39,2.39,0,0,1,.61.4.82.82,0,0,0,.61.25,1.15,1.15,0,0,0,.69-.25,4.91,4.91,0,0,1,.69-.4l.87-.49a1.05,1.05,0,0,1,1-.08,1.28,1.28,0,0,1,.7.73l.86,3.08a1.36,1.36,0,0,0,1.39.81H259a6.73,6.73,0,0,0,.61-.33,1.57,1.57,0,0,1,.78-.16,3.26,3.26,0,0,1,1.9.33,8.19,8.19,0,0,1,3.47,6.63,12.76,12.76,0,0,1-.34,2.27c-.35.86-.76,1.94-1.22,3.24s-.93,2.8-1.39,4.53l-1.73,7.77c-.23,1.08-.43,2.11-.61,3.08s-.37,2-.6,3.07q-1.74,5.67-4.86,17.33-1.74,7-3.3,12a116.06,116.06,0,0,0-3.47,14.89c-.23,1.29-.69,3.24-1.38,5.83A35.64,35.64,0,0,1,246,113q-3.12,13.27-4.86,19.92-2.25,8.09-2.6,10.2a92.77,92.77,0,0,1-2.6,10.52q-1.22,3.39-4,10.2a7.21,7.21,0,0,1-2.08,2.75,1.32,1.32,0,0,1-1,.16.49.49,0,0,1-.35-.16.62.62,0,0,1-.17-.49l-.18-.32Z" transform="translate(-1.85 -17.66)"/><path class="cls-1" d="M330,34.72q2.16,8.61,1.32,14.28l-1.29,12.58q-.8,7.69-1.51,12.82-1.1,8.63-3.19,17.75-4.11,16.68-4.41,25.91a42.8,42.8,0,0,1-1,4.21l-2.74,7.13q-2.62,6.58-3.61,9.94a94.4,94.4,0,0,0-2.83,10.53,14.16,14.16,0,0,1-4,7.86L301.4,164a39.51,39.51,0,0,1-19.63,11.5,109.65,109.65,0,0,1-11.63,2.37c-3.8.42-6.74.12-8.84-.9l-6.75-3.59c-.24-.15-.72-.42-1.43-.81a7.43,7.43,0,0,0-2-.79,9,9,0,0,1-6.14-4.46,33.82,33.82,0,0,1-2.47-6.82,23.3,23.3,0,0,1-.33-7.5c0-.46.2-3.67.47-9.61l.23-4.81a49.92,49.92,0,0,1,2-10.43c.45-2.28,2.62-4.73,6.51-7.32a4.08,4.08,0,0,1,2.3-.65c.89,0,1.41.26,1.58.77a5.25,5.25,0,0,1,.32,1.92c.32,1,1.36,1.82,3.12,2.39a1.69,1.69,0,0,0,1.21.11,6.31,6.31,0,0,0,1.51-.82,1.78,1.78,0,0,0,.62-.36,2.13,2.13,0,0,1,.62-.37c1.18-.6,1.95-.68,2.29-.22,2.32,1.74,3.62,3,3.88,3.83s.13,2.27-.29,4.65a18.08,18.08,0,0,0,.36,8.51,27,27,0,0,1,.89,6.47,24,24,0,0,0,.73,4.16,8.15,8.15,0,0,0,1.06,2.37,1.8,1.8,0,0,0,1.71,1.23,8,8,0,0,0,3.25-.45,8.66,8.66,0,0,0,3.85-2.75l1.11-2q3.35-8,6.33-14.36l2.26-4.94,1.47-3.69c.31-.88.75-1.95,1.34-3.21a40,40,0,0,0,1.62-4.15,18.69,18.69,0,0,0,1-6.22c.17-1.3.36-2.57.55-3.81s.32-2.39.38-3.42a75,75,0,0,1,1.45-8.41c.78-4.3,1.27-7.1,1.44-8.4a20.56,20.56,0,0,0,.53-3,7.76,7.76,0,0,0-.54-4.47,4,4,0,0,1,.07-2.56q.51-3,.91-10.09a53.73,53.73,0,0,1,.18-6.82l.21-2.1,3.87-19.31,1.56-9q.54-3.88,5.88-7.46a2.14,2.14,0,0,1,1.23-.3c.49,0,.78.12.84.32l4.23,10.48a8.54,8.54,0,0,0,1.27,2.13l1.49,0a1.9,1.9,0,0,0,.7-.56l.68-1.57a34.07,34.07,0,0,0,.9-3.67l1.31-1.43a2.62,2.62,0,0,1,1-.49,1.53,1.53,0,0,1,1.17,0A11.84,11.84,0,0,1,328.85,31a6.44,6.44,0,0,1,.82,2.1c.1.64.16,1,.16,1S329.89,34.31,330,34.72Z" transform="translate(-1.85 -17.66)"/><path class="cls-1" d="M360.16,23l.71,2.8c.48,2.49,2.25,3.88,5.29,4.17a12.4,12.4,0,0,0,2.28.31,3.8,3.8,0,0,0,3.25-2c.13-.26.26-.39.4-.39a.71.71,0,0,0,.52.17.81.81,0,0,1,.52.17,37.45,37.45,0,0,1,.56,4.69,25,25,0,0,1-.47,5.28l-1.62,7.95q-.54,2.66-1.64,7.48T368.35,62q-1.1,4.93-1.43,7.38-2.58,11-3.41,17.6a80.77,80.77,0,0,1-1.61,8.32l-1.1,4.93-5.51,29.89a18.72,18.72,0,0,1-.35,2.27,9.5,9.5,0,0,1-1.35,3.42l.07,2.07a24.58,24.58,0,0,1-1.05,6.43,25.56,25.56,0,0,1-1.34,3.8,75.92,75.92,0,0,0-2.79,10.43,8.09,8.09,0,0,1-1.37,2.67c-.12.38-.46.58-1,.6a1.08,1.08,0,0,1-.84-.54,3.06,3.06,0,0,1-.34-.93,3.24,3.24,0,0,0-.34-.93.84.84,0,0,0-.84-.35,1.27,1.27,0,0,0-.82.21c-.26.38-.63.86-1.09,1.44a4.18,4.18,0,0,0-.88,1.63l-2.15,4.2c-.13.38-.73.9-1.82,1.56-.13.13-.4.13-.82,0a1.27,1.27,0,0,1-.84-.54l-1-4.48c-.3-.5-.64-.61-1.05-.35a2.29,2.29,0,0,0-1.2,1.36,32.93,32.93,0,0,1-1.94,4.19,29.79,29.79,0,0,0-2.5,6.28,7,7,0,0,1-2.36,4,.53.53,0,0,1-.52.1,1.76,1.76,0,0,0-.51-.07c-.28,0-.42-.12-.43-.37l-.13-4.51a5.35,5.35,0,0,0-1.15-3.92,5.56,5.56,0,0,1-1.36-3.91,35.53,35.53,0,0,1,.28-4.52A132.92,132.92,0,0,1,324.43,142q1.27-5.29,3.45-15.9.35-2.27,1.44-7.19l.38-1.33q1.67-6.45,4-18.93,1.05-6.61,2.15-11.17,3.66-15.72,9-32.06l2.6-9.67a18,18,0,0,1,1.89-6.26,7.42,7.42,0,0,0,.38-1.05,3.73,3.73,0,0,0,.17-1L351.9,30a7.48,7.48,0,0,1,1.79-2.31l3.61-3.49a6.84,6.84,0,0,1,1.53-.7l.92-.31Zm-.2,0-.26-1.68.19-.39c.69-.27.9-.15.64.36a2.09,2.09,0,0,1-.18,1C360.21,22.44,360.08,22.7,360,23Z" transform="translate(-1.85 -17.66)"/></g></g></svg>