<svg xmlns="http://www.w3.org/2000/svg" viewBox="0 0 324.73 149.42"><defs><style>.cls-1{fill:#fff;}</style></defs><title>benjiNewLogo_1</title><g id="Layer_2" data-name="Layer 2"><g id="Layer_1-2" data-name="Layer 1"><path class="cls-1" d="M108.61,36.05q5.27,0,23.55,4.07a23.78,23.78,0,0,1,9.2,5.58q4.69,0,4.44,10.16a23,23,0,0,1-.38,3l-.31,1.27Q143,70.4,124.73,83.28c-.64,0-2.77,1.69-6.41,5.08A81.39,81.39,0,0,1,105.75,95l-.06.25,10,5.34a56.72,56.72,0,0,0,8.12,7.36c1.19,3.17,1.63,5.38,1.33,6.6l-.31,1.78q-.31,1.45-3.62,3.81-.51,2.28-6,6.35-9.52,7.61-27.48,13.45l-9.4,2.54c-1.82-.17-3.41-.25-4.76-.25q-3.36.26-14,4.57c-1.11,0-2.54,2-4.32,6.09H55.1c-.34,0-.66-.89-1-2.54l-.5-.25Q46.27,161,45.83,163c-.51.76-.93,1.18-1.27,1.27h-.51l.13-.51q.63-3,5-11.43l.51-1.27c-.6,0-4.57.77-11.94,2.29l-4.31-1h-.51l-11.55,1.78H19.8l.13-.51a13.71,13.71,0,0,1,3.68-2l.06-.25-.44-.26H23a94.91,94.91,0,0,1-9.91,1.27H11c-5-.34-7.59-.5-7.8-.5l-1.78.25A3.5,3.5,0,0,0,0,151.58l.06-.25q.32-1.59,15.68-2c.93,0,3.58-.93,7.93-2.8A20.3,20.3,0,0,0,32.82,143q1.4-1.33,12.75-3.81a13,13,0,0,1,2.8-1.27l.12-.51c-.8-.12-1.18-.38-1.14-.76,3.64-1.14,5.59-2.33,5.84-3.55h-.51a3.16,3.16,0,0,1-1.33.5l.32-1.52q.57-2.59,8.25-17.52a17.46,17.46,0,0,0,1.65-4.06,6.42,6.42,0,0,1-.19-2.54q3.87-8.82,4.13-9.9h-.77c-1.18,0-1.65-.59-1.39-1.78l.32-.51c-2.21,0-3.2-.51-3-1.52,3-.59,4.57-1.1,4.7-1.52-6.09-.93-9.06-1.78-8.89-2.54a.3.3,0,0,1,.32-.26l.89-.5h.51c2,0,4,.08,6,.25q4.38-.31,4.5-1l-.31-.76.06-.51a8.8,8.8,0,0,0,1.08-.25l1.71.25a4.87,4.87,0,0,0,.89-1.52c.3-2.37.53-3.89.7-4.57a21.29,21.29,0,0,0,3-6.86l1.27-1.26.13-1.78.19-.76q1.91-7.36,4.06-7.37.06-.31,4.83-2.28,5.9-6.09,8.12-6.1c.68,0,1.29-.5,1.84-1.52.17-2-.53-3-2.09-3L92.93,50C92.67,51.21,92,51.8,91,51.8H89.75c-.42,0-.61-.68-.57-2l.13-.51.7-.76v-.26c-6.44-.17-10.43-.42-12-.76l.06-.25,3.5-2-.51-.26H78.77A19.37,19.37,0,0,0,68.49,48a21.94,21.94,0,0,1-5.65,1.52A8.73,8.73,0,0,1,59.22,51l-.13-.51.13-.76a70,70,0,0,1,7.87-3.56Q75,40.38,86.64,40.37c.81-.08,2.56-.84,5.27-2.28h13c.89,0,1.46-.26,1.72-.77-.68,0-1-.25-.89-.76A7.18,7.18,0,0,1,108.61,36.05ZM21.52,153.11l-.07.5h.76l.07-.5ZM51.79,90.9h1.27L53,92.17c0,.25-.34.51-.89.76H50.84l-.06-1C51.2,91.24,51.54,90.9,51.79,90.9ZM56.05,97c1.27,0,2,.43,2.28,1.27l-.25,1a4.29,4.29,0,0,1-2.86,1.52H55c-.59,0-.8-.93-.64-2.79A3.63,3.63,0,0,1,56.05,97ZM64.3,86.84h.51v1.27l-.07.25a.59.59,0,0,1-.63.51H62.84L63,87.09Zm16.57,20q-6.74,13.73-9.27,13.72-3,2.48-4.63,9.9l10.28-3q7.48-1.84,8.06-4.57a34.2,34.2,0,0,1,6.86-2.28,21,21,0,0,1,11.93-3.56q-1.27-2.53-10.66-2.54-2.1,0-6.35-3.55-1.65,0-5.33-3.56ZM93,81l-.06.25h.25A2.36,2.36,0,0,1,94,81l.06-.26h-.25A2.44,2.44,0,0,1,93,81Zm15.62-29.46h-1.78c-.85,0-2.1-.08-3.75-.25q1.22,4.07-1,14.47A33.33,33.33,0,0,1,95,77.7c-.25,0-.78.84-1.59,2.53h.26a25.47,25.47,0,0,0,8.06-2c.34-.5,2.28-1.27,5.84-2.28,4.53-3.43,7.8-5.8,9.84-7.11h2.79q3.11,0,8-8.89l.06-.25q.83-3.75-2.92-5.33-1.51,0-3.24-2.8a52.24,52.24,0,0,0-9.39-1h-.51C112,50.53,110.81,50.87,108.61,51.54Zm-10.92-1a2.47,2.47,0,0,0,1.46,1.52l.25-1.27Zm10-13.71-.13.5h.76l.13-.5Z" transform="translate(0 -24.18)"/><path class="cls-1" d="M97.13,129h.72a.27.27,0,0,1,.27.35l0,.18q0,.27-.63.54h-.54Zm3.28,3.95h.72c.9,0,1.33.18,1.3.54l-.09.54a2.35,2.35,0,0,1-1.84,1.07H100a5.33,5.33,0,0,0-.09-1.25A2.16,2.16,0,0,0,100.41,133Zm64-74.57h.18q.36,0,.27.36l-.09.36c-.48,1.16-.74,1.82-.77,2l-.09.54c0,.36.35.54.95.54l1.43-.9a3.83,3.83,0,0,1,1.4.36c1.22-.12,2.18-.18,2.87-.18h.36l5.44,1.62q0,.36.27.36h.53a18.29,18.29,0,0,1,3.64-1.8c.06-.36.41-.6,1-.72q6.28,0,6.06,1.08l.09.36a.48.48,0,0,0-.45.36c1,.09,1.42.21,1.39.36l1-.18h1.25a1.16,1.16,0,0,1,1.22.9c-.15,0-.5.24-1,.72a2,2,0,0,1,.18.9H194c4.58.6,7.14.89,7.68.89l0,.36-1.35.36h-6.83a9.45,9.45,0,0,0-4.94,1.26l-.45-.36h-.36q-.31,1.39-6,2c-.54.36-.82.6-.85.72a2.46,2.46,0,0,1,.09.54h-.54l-1.35.36c-.84,0-2.56-.06-5.17-.18q-4.93,0-6.51,1.79a10,10,0,0,1-3.5.54H163a10.54,10.54,0,0,0-3.33,5.39c-.21.66-1.12,1.56-2.74,2.7-.39,1.2-1.73,3-4,5.57a10.68,10.68,0,0,0-1.62,3.41L151,92c2.34.72,3.55,1.2,3.64,1.44h.9c.09-.45.91-.93,2.47-1.44l.54-.9h3.06l2.2-.18c.42,1,.85,1.44,1.3,1.44a7.75,7.75,0,0,1,1.71-.36h.36c.68.06,1,.24.94.54l-.05.36-.49.54,0,.18q-.14.77,7,.9c0,.12,0,.18.14.18a10.16,10.16,0,0,1,1.66-.18h1.44l-.09.35c-5.78.6-9.23,1-10.33,1.26q-.14.67-2.16.9c-.12.6-1.14,1.2-3.05,1.8q-2.7.5-3.33,1.26a1.19,1.19,0,0,1,.05.53,5,5,0,0,1-2.43.54h-.36a15.37,15.37,0,0,1-2.34-.18q-6.19.58-6.42,1.62l-1.53.36-.31-.18a3.42,3.42,0,0,0-3.1,1.8,47.5,47.5,0,0,1-3.37,4.85c-1.59,3.23-3.14,5.27-4.67,6.11-.36,0-.74.6-1.12,1.8-.75,0-1.65.83-2.7,2.51-.48,0-.94.48-1.39,1.44v.9l-.27,1.26c4.13-.25,6.26-.66,6.38-1.26a4.33,4.33,0,0,1,2.11-.54c.18,0,.88.06,2.11.18-.09.36,0,.54.22.54l.09-.36c.09,0,.56.06,1.4.18.48,0,3.66-.9,9.57-2.7l10.37-1.62,9.3,1.08h.54c.51-.72,2.08-1.31,4.72-1.79a3.89,3.89,0,0,1,3.32-1.26h1.62q6.83,0,6.51,1.44a.48.48,0,0,0-.45.36,2.75,2.75,0,0,1,1.22.35c1.58-.11,2.84-.18,3.77-.18a1.76,1.76,0,0,1,1.8.9l-1.26.9-.05.18c-.09.39.56.75,1.93,1.08,1.92-.12,3.07-.18,3.46-.18A7.79,7.79,0,0,1,202.3,122h.18c1.25-.12,2.23-.18,2.92-.18l.08.36c-.95.09-1.46.21-1.52.36a8.36,8.36,0,0,0-1.4-.18q-3.63,0-7.68-.18c-1.4.12-2.74.18-4,.18a13.12,13.12,0,0,1-3.51,1.25h-.18l.05-.17c.48,0,.76-.18.85-.54h-.72q-.23,1-10.42,2.51l-.09.36q.72,0,.63.36v.18q-3.83,0-15.5,1.8c-1.56,0-2.41.36-2.56,1.08a24.63,24.63,0,0,1-8.18,2.15l-1.21-.18q-11.24,1.89-15.09,3.24a17,17,0,0,1-4,.89,12.07,12.07,0,0,1-3.63,1.08h-2.16a2,2,0,0,0-1.44.9h-2.33q-2.34,0-2.7,1.62l-1.53,1.26H117c-.24,0-.28-.36-.13-1.08h-.36c-1.08,0-2.19,1.55-3.32,4.67l-2.88,3.41c-.42,0-1.15,1.2-2.2,3.6l-.41.18h-.17l.13-.54q2.43-4.72,5.79-10.42a11,11,0,0,0,.54-1.8l.41-1.8q-7.14-1.17-6.87-2.33-.27,0-.45-.54l.27-1.26a1.48,1.48,0,0,0-.23-1.44l-.94.18h-2l0-.18c.06-.21,1-.51,2.87-.9q.09-.36.63-.36l0-.18A31.22,31.22,0,0,1,101,128l0-.18q7.27,0,17.38-4.14a81.5,81.5,0,0,1,6.38-9.7,22.15,22.15,0,0,1,3-5l.68-3.23a26,26,0,0,0,2.07-3.78l0-.18c0-.36-.88-1.55-2.65-3.59l.13-.54c.12-.63.39-1.65.81-3-.9-.33-1.32-.63-1.25-.9l0-.18h1.44a1.58,1.58,0,0,1,.49-.72q-.86-1.49-3.91-2.7l.14-.54h1.08q1.24,1.26,6,1.26c.56,0,2.33-.12,5.3-.36a15.63,15.63,0,0,0,2.2-4.49l0-.18h-.18A12.63,12.63,0,0,1,138,87.34l.13-.54q5.49-4.76,6.38-9h-1.62c0-.11,0-.18-.13-.18a6.6,6.6,0,0,1-4-1.43q-4.35-.72-3.86-3.06a12.79,12.79,0,0,1,0-1.61h-.54a1.71,1.71,0,0,0-.77.18,1.15,1.15,0,0,0-.67-.18l.05-.18a8.34,8.34,0,0,0,2.24-1.44,14.67,14.67,0,0,0-3.59-.72h-1.44L129.3,69c.06-.33,1.18-.57,3.37-.72.06-.33,1.19-.63,3.41-.9q5.61-3,8-3a5,5,0,0,1,2,.54q5.67,0,7.59-1.8a3.42,3.42,0,0,0,2.07-2.16h1.26l.67,1.8h.54c.9-1.92,1.83-2.87,2.79-2.87a1.62,1.62,0,0,0,1.17.53l-.14-.35.22-1.08A7.82,7.82,0,0,1,164.43,58.41ZM112.86,126l0,.18h.9l0-.18c-.23,0-.34-.06-.31-.18A1.68,1.68,0,0,1,112.86,126Zm9-36.48h.35c.18,0,.32.18.41.54l-.05.36a.42.42,0,0,1-.45.36h-.35q-.36,0-.27-.36Zm1.39,5.22c1.44,0,2.06.42,1.88,1.25,0,.15-.52.51-1.48,1.08-.84,0-1.18-.36-1-1.08Zm2.51-24.44h.36q.36,0,.27.36l-.09.54a.43.43,0,0,1-.45.36h-.54v-.9A.47.47,0,0,1,125.79,70.27Zm4.86,3.41c.56.09.82.27.76.54l-.09.54A2.36,2.36,0,0,1,129.43,76h-.18c-.24,0-.4-.36-.49-1.08A2,2,0,0,1,130.65,73.68Zm2.56,17.43q0,.36.27.36l.08-.36Zm5.25-24.62a1.77,1.77,0,0,1-.31.54h.36a1.77,1.77,0,0,1,.31-.54Zm1.08,66,0,.18h.36l.05-.18Zm6.06-30.37,0,.18h.18a1.68,1.68,0,0,1,.58-.18l.05-.18h-.18A1.42,1.42,0,0,1,145.6,102.07Zm12.18-45.46h1.08a2,2,0,0,1,.85,2l-.81,1.26q-1.93,0-1.8-2.52l.05-.18Q157.2,56.88,157.78,56.61ZM159.35,62l-.09.36h.36l.09-.36Zm5.21-7.72h.54a1.16,1.16,0,0,0,.22.71l-.13.54-.9.18h-.36a1.16,1.16,0,0,0,0-.72C164.16,54.52,164.38,54.28,164.56,54.28Zm.9,43.12h.18l0,.36h-.18ZM166.54,57h.18c.15,0,.28.18.4.54l-.09.36a.36.36,0,0,1-.4.36h-.36c-.24,0-.35-.12-.32-.36l.14-.54A.47.47,0,0,1,166.54,57Zm18.69,63.25v.18h.53v-.18Zm3-51.93h.18l-.05.18a.36.36,0,0,1-.4.36h-.18v-.18A.47.47,0,0,1,188.19,68.29Z" transform="translate(0 -24.18)"/><path class="cls-1" d="M245.25,32.44,245.3,34q-3.37,9.25-5,13.25c-.27,1.86-.54,3.44-.81,4.76a35.18,35.18,0,0,0-2,5.52l-.18.81.14,4.14q-4.23,12.39-4.85,15.22v.18h.18a9.21,9.21,0,0,0,.85-1.16h.18c.27,0,.37.16.31.4a145.1,145.1,0,0,1-7.45,17.39Q219.25,111,219,112.09a20.56,20.56,0,0,0-.09,3.19q-3.78,8.44-4,9.48l-.63,3c-.12.66-.81,1.45-2.07,2.38l-.67,3.15a47.74,47.74,0,0,0-4.18,3.77c-.78,0-1.5.59-2.15,1.75a27.52,27.52,0,0,0-3.19,2h-.36l-1.89-.58c-1.95.27-3,.4-3.06.4l.23-1c.06-.21-.09-.4-.45-.58-.81,0-1.63.72-2.47,2.15a3.55,3.55,0,0,1-2.74,1.8l-.09-.4.67-1.4c-.48-.18-.7-.37-.67-.58l.18-.81a.49.49,0,0,1,.49-.36h.77l.54.36a15.4,15.4,0,0,0,2.29-4.31h-.18a5.86,5.86,0,0,1-1.66,1.17h-.41c-.24,0-.34-.14-.31-.41l.09-.4c1.55-1.68,2.39-2.79,2.51-3.33a30.88,30.88,0,0,0-3.86-7.9,56.51,56.51,0,0,1-1.21-7.32,8.71,8.71,0,0,1-.95-5.75q-1.26-5-2-5.53-2.75,6.24-5.48,8.09c-1.35.75-2.34,2.6-3,5.57a7.61,7.61,0,0,0,.49,2.33q-3.81,7.72-5.61,7.73-.86,0-3.19,4.76l-1.12.76h-.41v-1l.18-.77h-.81q-6.92,11.19-7.23,12.63H161c-.27,0-.38-.14-.32-.41l.09-.36q1.49-3.32,5.8-15.23l-.5-2.2a45.58,45.58,0,0,0,2.56-6.51h-.18a2.85,2.85,0,0,1-1.3.4l.05-.18a27.31,27.31,0,0,1,2.92-6.33,74.74,74.74,0,0,1,4-8.49,7.11,7.11,0,0,0-.31-2.2l7.77-15.23a16.18,16.18,0,0,1,.27-2.16l.14-.58a57,57,0,0,1,3.23-5.93q1-4.93,2.43-4.94L195.75,69l.09-1.39.22-1,1-.18c-.18.78.26,1.24,1.31,1.39a29.8,29.8,0,0,1,1.08-3.37l-.36-1,.09-.4a2.11,2.11,0,0,1,1.84-1.17c.9,0,1.24.53,1,1.57a10,10,0,0,0-1,1.8l-.18.76-.18,2h.36c.18-.51.44-.76.77-.76h.58a12.58,12.58,0,0,1,0,1.75,12,12,0,0,0,4.36-4.72h.59v1l-.05.18q-3.94,6.6-4.72,10.06c-.12,0-.19.08-.22.23a11.68,11.68,0,0,1-.18,1.75l0,.22-1.49,3.15c-.06.39.53,2,1.75,4.94q2.7,12.41,1.08,20a77.74,77.74,0,0,1,.81,10.06h.23q5.61-13.47,7.5-15,2.86-2.48,7.19-14.24l.27-1.21.4-3.73q5.39-11.37,5.61-12.45.5-2.37,4.59-7.72,1.35-2.74,4.31-10.87c.51-.78.85-1.17,1-1.17h.18a7.21,7.21,0,0,1,0,1.75l-.41,1.8c.57,0,1.58-2.25,3-6.74Q243.69,35.14,243.9,34C244.47,33,244.92,32.44,245.25,32.44ZM168,120.63l-.08.35h.22l.09-.35Zm22.51,25.29h.76v1l-.09.41-1,.18h-.36a1.46,1.46,0,0,0,0-.81C190,146.17,190.28,145.92,190.49,145.92Zm2.74-83.6H195a8.13,8.13,0,0,1,0,1.75l-.14.58a1.6,1.6,0,0,1-1.52.81c-.48-.54-.89-.81-1.22-.81l.36-1.75C192.54,62.69,192.78,62.5,193.23,62.32Zm4,80.81h1.62a16,16,0,0,1,.14,2,2.2,2.2,0,0,1-1.22,1.21h-.22q-1.75,0-1.44-1.62A5.24,5.24,0,0,0,197.18,143.13ZM199.7,58h.76q.4,0,.36,1.17a2.8,2.8,0,0,1-1.52.58h-.18l.09-.36Zm3.77,41.69-.09.4a1.18,1.18,0,0,1,.09.58h.18l.09-.4a2.49,2.49,0,0,1-.09-.58Zm4.09-39.71h1v1l-.05.18a.46.46,0,0,1-.49.41h-.76c-.27,0-.38-.14-.32-.41l.18-.76C207.2,60.07,207.35,59.94,207.56,59.94Zm25.29,18.77a1.47,1.47,0,0,1-.4.77h.4l.18-.77Zm2.2-28.07-.18.81h.18l.18-.81Z" transform="translate(0 -24.18)"/><path class="cls-1" d="M280,53.78l.18.41-.13.71-.5,1.08q10.92.45,10.52,2.38a8.78,8.78,0,0,0,1.79.41,9.14,9.14,0,0,0,6.25-2h.22q7.95,0,7.68,1.35c-.18.9,1.67,1.41,5.53,1.53h.94c-.06.3.05.45.32.45l0,.22a12.52,12.52,0,0,0-2.15,1.71,1.06,1.06,0,0,0,.62.27q13.67.63,13.53,1.25l-.09.27c0,.24-.2.36-.5.36a140.27,140.27,0,0,0-17,1.8,2.87,2.87,0,0,1-2.43,1.53c-.33,0-1.17-.08-2.51-.23l-3.69.86,0,.22q0,.45.36.45c-.15.63-1.1,1-2.83,1.08-3.48-.3-6.17-.45-8.09-.45h-5.17a10.93,10.93,0,0,0-1.66,1.35h-7.23l-.4-.27a41.07,41.07,0,0,0-2.16,6.6q-6.51,13.53-8.45,13.52a43.43,43.43,0,0,0-4.22,6.52q-2.93,2.91-4.22,8.94-2.52,6.15-5,6.15-1.44,1.76-4,10a71.65,71.65,0,0,0-3.54,9.12q-7.65,14-11.86,14c-4.71,2.76-7.27,4.13-7.69,4.13l-1.43.23q-2.21,0-7.46-2.43-2.3-4.62-.72-12c-.36,0-.36-1.09,0-3.28l.05-.22a17.69,17.69,0,0,1,2.15-3.69,6.46,6.46,0,0,0,.63-1.75q.23-1,1-6.74c.51-1.76,1-2.65,1.53-2.65s.54.94.54,2.83a1.24,1.24,0,0,1,.62.27,11.9,11.9,0,0,1,.95-2.25l.49-3.45,4.36-12.9c.63-.86,1-1.3,1.21-1.3l.36.67-3.32,15.68q.41,1.44-.54,7,2.3,3.33,1.21,8.49c.33,0,.2,1.38-.4,4.13h.45a6.17,6.17,0,0,0,1.34-1.93,13.45,13.45,0,0,1,.05-2.2q3.58-9.26,13-28.12a30,30,0,0,1,4.18-9.84q.49-2.48,3.46-6.33a27.37,27.37,0,0,1,9.88-15.73l0-.35q-.4,0-.36-.27a13.3,13.3,0,0,1-5.39,1.07,70.23,70.23,0,0,1-8.22-6.33,3.81,3.81,0,0,1-1-2.79,17.09,17.09,0,0,0,.72-2.42c-1.29-.54-1.84-1.2-1.66-2,1.32-.33,2-.76,2.15-1.3q-5.47-1.89-5.3-2.79a3.68,3.68,0,0,1,1.53-.44h.68a15.39,15.39,0,0,0,4,.8,91.39,91.39,0,0,0,10.29-1.07q3.86,0,5.21,1.79a31.79,31.79,0,0,0,5.25.63,31,31,0,0,1,4.22-1.08,3.08,3.08,0,0,1,2.43,1.71h.72q6.29-.85,6.42-1.53C278.23,54.43,279.06,53.78,280,53.78Zm-62.57,64.55-.09.45h.22l.09-.45ZM232.1,54.9h1.34l.05,1.08-.05.18a.52.52,0,0,1-.58.45h-.94c-.3,0-.41-.21-.32-.63ZM235,60.74c1.67.24,2.45.62,2.33,1.13l-.27,1.26a9.45,9.45,0,0,1-2.56.89c-.75-.3-1.12-.65-1.12-1.07A2.59,2.59,0,0,1,235,60.74Zm29.69,26.6a2.13,2.13,0,0,1-.67.9l-.05.18h.23a2.65,2.65,0,0,1,.63-.81l0-.27Zm6.69-36c1.71.15,2.47.58,2.29,1.3-.65,1.5-1.19,2.24-1.61,2.24h-1.66a1.71,1.71,0,0,0-.41-1.34l.09-.45C270.49,52,270.92,51.45,271.4,51.36Zm8.72-2.61q.86.36.81.63l-.23,1.12-1.21.23a2,2,0,0,1-.4-1.53l0-.23A5.55,5.55,0,0,0,280.12,48.75Z" transform="translate(0 -24.18)"/><path class="cls-1" d="M312.1,30.34h.26a51.41,51.41,0,0,1-1.78,5.91,6.26,6.26,0,0,0,.76,3c-.76,2.71-1.19,4.19-1.27,4.45q.06,3.67-3.11,20.12a127.34,127.34,0,0,1-9.84,15.93q-.83,1.2-3.43,10.92-3.56,2.16-4.12,5c-.17,1.61-.28,2.54-.32,2.8a54.9,54.9,0,0,0-4.38,11.42q-6.09,10.22-6.79,13.39a54.55,54.55,0,0,0-2.54,5.34l-.32,1.65a19.05,19.05,0,0,0-3,3.68,4.17,4.17,0,0,1,.32,2.22q-4.89,12.25-6.8,12.25a12.81,12.81,0,0,0-5.58,7.87,6.3,6.3,0,0,1-2.48,2.48c-.38,0-.46-.93-.25-2.79a2,2,0,0,1-.76-.26q-.39,1.78-9.21,14.22a5.29,5.29,0,0,1-2.41,3.62h-.57l.06-.26q.76-3.56,7.05-14.79l.25-1.14a1.76,1.76,0,0,0-.06-1.08,32.73,32.73,0,0,0,2.67-5.9q-.19-3.36-.39-3.36a54.55,54.55,0,0,0,3.75-9.78l-.64.32h-1.14l.26-1.15q2-4.38,5.52-14.21,3.42-6.86,4.12-10.1c-.29,0-.59-.36-.88-1.08l.06-.31a88.18,88.18,0,0,1,4.06-10c-.72,0-1-.47-.82-1.4l.12-.57a44.61,44.61,0,0,0,3.43-9.46l.38-1.71a32.25,32.25,0,0,0,.64-5.59,62.79,62.79,0,0,1,6.22-9.77,14.6,14.6,0,0,0,2-3.88q-.19-1.71-.45-1.71A14,14,0,0,0,282,63l-.38-2a54.91,54.91,0,0,1,3.17-7,16,16,0,0,0,.38-4.44c.22-1.14,1.95-2.73,5.21-4.76q.26-.89,8.25-7.24h2.48l1.9.26c.89-1.7,1.82-2.54,2.79-2.54a4.2,4.2,0,0,1,.39,2h.31c1.31-3.72,2.46-5.58,3.43-5.58q.63,0,1.08-1.08A2.13,2.13,0,0,1,312.1,30.34ZM301.25,29h2.47l.19,2-.25,1.15a3,3,0,0,1-2.54,1.39c-.38,0-.87-.76-1.46-2.28C300.3,29.69,300.82,29,301.25,29Zm9.9-4.77h1.4v1.4l-.13.57-1.46.32h-.83V25.33C310.56,24.57,310.9,24.18,311.15,24.18Z" transform="translate(0 -24.18)"/></g></g></svg>